<svg width="1412" height="196" viewBox="0 0 1412 196" fill="none" xmlns="http://www.w3.org/2000/svg">
<path d="M0.988281 147V0.515625H25.0117V61.8438C32.1732 52.2083 42.6875 47.3906 56.5547 47.3906C69.0547 47.3906 78.8203 51.2318 85.8516 58.9141C92.8828 66.5312 96.3984 77.1432 96.3984 90.75V147H72.375V96.9023C72.375 88.0482 70.3242 81.1797 66.2227 76.2969C62.1211 71.349 56.3594 68.875 48.9375 68.875C41.4505 68.875 35.5911 71.3815 31.3594 76.3945C27.1276 81.3424 25.0117 88.1784 25.0117 96.9023V147H0.988281ZM159.875 195.828H134.191L154.504 146.609L106.066 49.3438H133.117L165.93 119.168L194.836 49.3438H220.52L159.875 195.828ZM261.145 195.828H237.121V49.3438H258.312L259.484 63.0156C263.781 58.1328 268.957 54.3242 275.012 51.5898C281.066 48.7904 287.674 47.3906 294.836 47.3906C303.951 47.3906 312.089 49.6042 319.25 54.0312C326.477 58.4583 332.141 64.513 336.242 72.1953C340.409 79.8125 342.492 88.4714 342.492 98.1719C342.492 107.872 340.409 116.564 336.242 124.246C332.141 131.863 326.477 137.885 319.25 142.312C312.089 146.74 303.951 148.953 294.836 148.953C288.13 148.953 281.913 147.749 276.184 145.34C270.454 142.931 265.441 139.546 261.145 135.184V195.828ZM289.66 127.273C295.129 127.273 299.979 126.036 304.211 123.562C308.508 121.023 311.828 117.573 314.172 113.211C316.581 108.784 317.785 103.738 317.785 98.0742C317.785 92.4102 316.581 87.3971 314.172 83.0352C311.763 78.6081 308.443 75.1576 304.211 72.6836C299.979 70.1445 295.129 68.875 289.66 68.875C284.517 68.875 279.862 70.0469 275.695 72.3906C271.529 74.6693 268.176 77.8268 265.637 81.8633C263.098 85.8346 261.6 90.3919 261.145 95.5352V100.906C261.6 106.049 263.065 110.607 265.539 114.578C268.078 118.549 271.431 121.674 275.598 123.953C279.764 126.167 284.452 127.273 289.66 127.273ZM450.5 135.672C438.326 144.526 425.012 148.953 410.559 148.953C400.077 148.953 390.669 146.674 382.336 142.117C374.003 137.56 367.395 131.342 362.512 123.465C357.694 115.522 355.285 106.603 355.285 96.707C355.285 87.2669 357.466 78.8359 361.828 71.4141C366.255 63.9922 372.277 58.1328 379.895 53.8359C387.577 49.5391 396.236 47.3906 405.871 47.3906C415.897 47.3906 424.686 49.7669 432.238 54.5195C439.855 59.207 445.78 65.75 450.012 74.1484C454.243 82.4818 456.359 92.1823 456.359 103.25V106.375H381.164C382.336 110.802 384.387 114.708 387.316 118.094C390.311 121.479 394.022 124.116 398.449 126.004C402.876 127.892 407.857 128.836 413.391 128.836C423.807 128.836 433.443 125.451 442.297 118.68L450.5 135.672ZM380.188 92.3125H434.094C433.573 87.4297 432.076 83.1654 429.602 79.5195C427.193 75.8737 424.035 73.0417 420.129 71.0234C416.288 68.9401 411.958 67.8984 407.141 67.8984C402.258 67.8984 397.896 68.9401 394.055 71.0234C390.214 73.1068 387.089 76.0039 384.68 79.7148C382.271 83.3607 380.773 87.5599 380.188 92.3125ZM499.816 147H475.793V49.3438H496.691L497.57 67.1172C500.956 60.8672 505.513 56.0169 511.242 52.5664C517.036 49.1159 523.677 47.3906 531.164 47.3906C533.117 47.3906 535.103 47.5208 537.121 47.7812C539.204 48.0417 541.255 48.4323 543.273 48.9531L540.344 70.6328C536.307 69.4609 532.401 68.875 528.625 68.875C522.896 68.875 517.85 70.2096 513.488 72.8789C509.191 75.5482 505.839 79.2591 503.43 84.0117C501.021 88.6992 499.816 94.168 499.816 100.418V147ZM642.199 131.961C637.447 137.365 631.685 141.564 624.914 144.559C618.143 147.488 610.754 148.953 602.746 148.953C592.85 148.953 583.964 146.74 576.086 142.312C568.273 137.885 562.089 131.863 557.531 124.246C553.039 116.564 550.793 107.872 550.793 98.1719C550.793 88.4714 553.039 79.8125 557.531 72.1953C562.089 64.513 568.273 58.4583 576.086 54.0312C583.964 49.6042 592.85 47.3906 602.746 47.3906C610.689 47.3906 618.013 48.8555 624.719 51.7852C631.49 54.7148 637.251 58.849 642.004 64.1875L627.941 79.1289C625.012 75.9388 621.464 73.4648 617.297 71.707C613.195 69.9492 608.833 69.0703 604.211 69.0703C598.612 69.0703 593.632 70.3073 589.27 72.7812C584.973 75.2552 581.587 78.6732 579.113 83.0352C576.704 87.3971 575.5 92.4102 575.5 98.0742C575.5 103.738 576.704 108.784 579.113 113.211C581.587 117.573 584.973 121.023 589.27 123.562C593.632 126.036 598.612 127.273 604.211 127.273C608.833 127.273 613.228 126.395 617.395 124.637C621.561 122.814 625.077 120.34 627.941 117.215L642.199 131.961ZM706.555 148.953C696.594 148.953 687.674 146.74 679.797 142.312C671.984 137.885 665.799 131.863 661.242 124.246C656.75 116.564 654.504 107.872 654.504 98.1719C654.504 88.4714 656.75 79.8125 661.242 72.1953C665.799 64.513 671.984 58.4583 679.797 54.0312C687.674 49.6042 696.594 47.3906 706.555 47.3906C716.451 47.3906 725.305 49.6042 733.117 54.0312C740.93 58.4583 747.049 64.513 751.477 72.1953C755.969 79.8125 758.215 88.4714 758.215 98.1719C758.215 107.872 755.969 116.564 751.477 124.246C747.049 131.863 740.93 137.885 733.117 142.312C725.305 146.74 716.451 148.953 706.555 148.953ZM706.359 127.371C711.568 127.371 716.223 126.102 720.324 123.562C724.426 121.023 727.648 117.54 729.992 113.113C732.401 108.686 733.605 103.673 733.605 98.0742C733.605 92.5404 732.401 87.5924 729.992 83.2305C727.648 78.8034 724.426 75.3203 720.324 72.7812C716.223 70.2422 711.568 68.9727 706.359 68.9727C701.216 68.9727 696.561 70.2422 692.395 72.7812C688.293 75.3203 685.038 78.8034 682.629 83.2305C680.285 87.5924 679.113 92.5404 679.113 98.0742C679.113 103.673 680.285 108.686 682.629 113.113C685.038 117.54 688.293 121.023 692.395 123.562C696.561 126.102 701.216 127.371 706.359 127.371ZM935.07 147H911.047V96.9023C911.047 88.0482 909.191 81.1797 905.48 76.2969C901.835 71.349 896.659 68.875 889.953 68.875C883.182 68.875 877.876 71.349 874.035 76.2969C870.259 81.2448 868.371 88.1133 868.371 96.9023V147H844.348V96.9023C844.348 88.0482 842.492 81.1797 838.781 76.2969C835.07 71.349 829.895 68.875 823.254 68.875C816.418 68.875 811.079 71.349 807.238 76.2969C803.462 81.2448 801.574 88.1133 801.574 96.9023V147H777.551V49.3438H796.789L797.668 65.9453C800.988 59.8906 805.383 55.3008 810.852 52.1758C816.385 48.9857 822.896 47.3906 830.383 47.3906C838.13 47.3906 844.803 49.0833 850.402 52.4688C856.066 55.7891 860.396 60.5742 863.391 66.8242C866.646 60.444 871.105 55.6263 876.77 52.3711C882.434 49.0508 889.107 47.3906 896.789 47.3906C908.833 47.3906 918.208 51.2318 924.914 58.9141C931.685 66.5312 935.07 77.1432 935.07 90.75V147ZM983.215 195.828H959.191V49.3438H980.383L981.555 63.0156C985.852 58.1328 991.027 54.3242 997.082 51.5898C1003.14 48.7904 1009.74 47.3906 1016.91 47.3906C1026.02 47.3906 1034.16 49.6042 1041.32 54.0312C1048.55 58.4583 1054.21 64.513 1058.31 72.1953C1062.48 79.8125 1064.56 88.4714 1064.56 98.1719C1064.56 107.872 1062.48 116.564 1058.31 124.246C1054.21 131.863 1048.55 137.885 1041.32 142.312C1034.16 146.74 1026.02 148.953 1016.91 148.953C1010.2 148.953 1003.98 147.749 998.254 145.34C992.525 142.931 987.512 139.546 983.215 135.184V195.828ZM1011.73 127.273C1017.2 127.273 1022.05 126.036 1026.28 123.562C1030.58 121.023 1033.9 117.573 1036.24 113.211C1038.65 108.784 1039.86 103.738 1039.86 98.0742C1039.86 92.4102 1038.65 87.3971 1036.24 83.0352C1033.83 78.6081 1030.51 75.1576 1026.28 72.6836C1022.05 70.1445 1017.2 68.875 1011.73 68.875C1006.59 68.875 1001.93 70.0469 997.766 72.3906C993.599 74.6693 990.246 77.8268 987.707 81.8633C985.168 85.8346 983.671 90.3919 983.215 95.5352V100.906C983.671 106.049 985.135 110.607 987.609 114.578C990.148 118.549 993.501 121.674 997.668 123.953C1001.83 126.167 1006.52 127.273 1011.73 127.273ZM1168.37 147H1147.47L1146.11 134.988C1142.52 139.415 1138.07 142.866 1132.73 145.34C1127.39 147.749 1121.46 148.953 1114.95 148.953C1108.05 148.953 1101.9 147.618 1096.5 144.949C1091.09 142.215 1086.83 138.504 1083.7 133.816C1080.64 129.129 1079.11 123.79 1079.11 117.801C1079.11 111.486 1080.77 105.952 1084.09 101.199C1087.48 96.3815 1092.07 92.6055 1097.86 89.8711C1103.72 87.1367 1110.4 85.7695 1117.88 85.7695C1122.44 85.7695 1127 86.2904 1131.55 87.332C1136.18 88.3737 1140.44 89.8385 1144.35 91.7266V88.6016C1144.35 84.3047 1143.18 80.5938 1140.83 77.4688C1138.49 74.3438 1135.33 71.9349 1131.36 70.2422C1127.39 68.4844 1122.93 67.6055 1117.98 67.6055C1113.49 67.6055 1109 68.3867 1104.5 69.9492C1100.01 71.4466 1095.81 73.6927 1091.91 76.6875L1085.07 57.8398C1091.32 54.3893 1097.7 51.7852 1104.21 50.0273C1110.79 48.2695 1117.2 47.3906 1123.45 47.3906C1132.63 47.3906 1140.57 49.2135 1147.28 52.8594C1153.98 56.4401 1159.16 61.5833 1162.8 68.2891C1166.52 74.9297 1168.37 82.7747 1168.37 91.8242V147ZM1119.93 129.617C1124.17 129.617 1128.07 128.738 1131.65 126.98C1135.3 125.223 1138.26 122.781 1140.54 119.656C1142.88 116.466 1144.12 112.82 1144.25 108.719V107.645C1141.19 105.431 1137.74 103.738 1133.9 102.566C1130.06 101.329 1126.18 100.711 1122.28 100.711C1116.29 100.711 1111.37 102.078 1107.53 104.812C1103.69 107.482 1101.77 110.997 1101.77 115.359C1101.77 118.029 1102.55 120.47 1104.11 122.684C1105.68 124.832 1107.82 126.525 1110.56 127.762C1113.36 128.999 1116.48 129.617 1119.93 129.617ZM1287.8 147H1263.78V95.4375C1263.78 87.2995 1261.7 80.8867 1257.53 76.1992C1253.36 71.4466 1247.73 69.0703 1240.64 69.0703C1233.35 69.0703 1227.49 71.5768 1223.06 76.5898C1218.63 81.5378 1216.42 88.2109 1216.42 96.6094V147H1192.39V49.3438H1212.22L1213 65.0664C1216.52 59.3372 1221.14 54.9753 1226.87 51.9805C1232.66 48.9206 1239.43 47.3906 1247.18 47.3906C1259.81 47.3906 1269.74 51.2318 1276.96 58.9141C1284.19 66.5964 1287.8 77.2083 1287.8 90.75V147ZM1351.28 195.828H1325.6L1345.91 146.609L1297.47 49.3438H1324.52L1357.34 119.168L1386.24 49.3438H1411.93L1351.28 195.828Z" fill="url(#paint0_linear_2_46)"/>
<defs>
<linearGradient id="paint0_linear_2_46" x1="198.588" y1="-314.682" x2="658.005" y2="341.142" gradientUnits="userSpaceOnUse">
<stop stop-color="#2579F3"/>
<stop offset="1" stop-color="#B992FF"/>
</linearGradient>
</defs>
</svg>
